<svg width="45" height="40" viewBox="0 0 45 40" fill="none" xmlns="http://www.w3.org/2000/svg">
<path fill-rule="evenodd" clip-rule="evenodd" d="M12.9011 33.0615C8.51351 31.0019 4.56072 27.819 2.83748 23.0301C1.12163 18.2616 3.03609 11.2676 9.05525 9.83105C11.2493 9.30741 14.6524 9.53039 16.5801 11.0353C18.5079 12.5403 18.8569 13.6322 19.173 14.4894C20.3238 13.3565 21.315 12.6977 22.434 12.2205C22.961 11.9957 23.9695 11.5141 25.4829 11.5141C29.1827 11.5141 31.5245 13.1582 33.3083 16.193C34.3962 18.0441 34.9557 21.6589 34.0265 23.8275C33.2159 26.0237 31.8847 27.6747 30.6755 28.8446C27.6764 31.7463 25.4978 33.3478 23.3885 34.7453C21.9533 35.6961 15.3164 39.1784 10.6106 39.6232C7.4795 39.9192 3.27137 40.1982 0.0523223 39.6232C-0.369145 39.5479 1.81796 39.6326 4.36855 39.0488C4.71442 38.9697 2.90112 38.7854 3.27137 38.7539C5.5843 38.5569 8.67416 37.7495 10.6106 37.1137C14.4293 35.8598 17.8565 33.9923 19.9532 32.741C22.05 31.4898 23.601 30.3568 25.3594 29.0525C25.9316 28.628 26.9964 27.6429 27.5121 27.1523C28.2362 26.4635 28.4179 26.2661 29.077 25.5159C29.5014 25.0329 29.721 24.7075 30.1982 23.9484C30.6755 23.1893 32.0757 20.0732 30.1982 17.2801C28.3207 14.4871 25.9483 14.9178 23.7586 15.7542C21.2243 16.7221 19.7714 18.7005 18.8569 19.3667C18.0247 18.0615 17.7026 17.5588 16.5801 16.193C15.4577 14.8273 13.9698 13.7477 12.1776 13.4174C8.49068 12.7379 5.36559 15.9622 5.7468 20.0966C6.01995 23.0592 7.7889 25.0008 7.7889 25.0008C7.7889 25.0008 10.9274 28.2602 11.395 28.7028C11.8685 29.195 12.5116 29.8622 12.7551 30.1147C12.5485 30.1332 12.3592 30.1582 12.0178 30.1582C12.0721 30.2637 12.3771 30.4771 12.486 30.6485C12.3198 30.6897 12.2318 30.7218 12.0178 30.7563C12.1099 30.9057 12.6039 31.5109 12.7551 31.6991C12.7551 31.6991 12.1487 31.6665 11.8685 31.6991C12.0741 31.9864 12.9011 33.0615 12.9011 33.0615Z" fill="#373E49"/>
<path fill-rule="evenodd" clip-rule="evenodd" d="M34.4581 0C34.4581 0 36.3293 2.61505 36.6866 4.6558C37.9795 4.78261 40.8673 3.85294 40.8673 3.85294L41.3411 7.14921C41.3411 7.14921 39.4813 7.03182 38.5113 7.14921C37.5413 7.26659 37.1863 7.33867 36.9652 7.45132C37.0992 8.80059 37.0992 10.0922 37.217 10.8913C37.3348 11.6905 37.9579 13.7933 38.2689 14.4232C38.3989 14.6867 38.7609 15.8647 39.2316 17.1758C39.8864 18.9997 40.6295 21.1149 40.8028 21.6854C40.9337 22.1161 41.1588 22.983 41.252 23.9432C41.252 25.2303 41.3411 26.5067 41.3411 26.8456C41.3411 27.45 42.2663 29.2998 42.5 29.8598C42.8938 30.8035 43.2269 32.1271 43.7636 33.698C44.2062 34.9937 44.7909 36.2029 44.8908 36.4288C45.1117 36.9286 41.069 33.8118 40.8028 33.4818C40.6506 32.9318 40.4247 32.054 40.1522 31.1097C39.8796 30.1653 39.0662 28.7339 38.9161 27.7264C38.8585 27.3398 38.7397 26.8789 38.6877 26.3491C38.6042 25.4981 38.6877 24.6332 38.5113 23.9432C38.1364 22.4132 36.2733 17.8506 35.8047 16.4316C35.3361 15.0126 34.3098 12.3458 34.1178 11.1516C33.9258 9.9573 33.7613 9.28255 33.5847 7.93442C32.5484 7.82479 31.4812 7.78779 30.6517 7.80483C29.6799 7.82479 28.9072 7.9483 27.4847 8.25168C25.9925 8.56991 25.1803 8.82047 24.0314 8.96587C22.8882 9.11055 21.6273 9.29164 19.7718 9.29164C18.6537 9.19852 17.8394 9.05489 17.2222 8.40182C19.5613 7.38822 22.265 6.80589 24.0314 6.46111C26.0908 5.99243 27.6385 5.0823 29.0985 5.0823C30.5586 5.0823 33.1639 5.0823 33.1639 5.0823C33.1639 5.0823 33.1508 3.86206 32.7889 3.28408C32.4271 2.7061 32.2264 1.84148 32.0775 1.33814C32.4556 0.983748 34.4581 0 34.4581 0Z" fill="#373E49"/>
</svg>
